#!OML:ASF \\Waltz\H\Terrain\Patient Classification 1\Animal2\Wednesday\Animal2.ASF
:FULLY-SPECIFIED
:DEGREES
657
root 8.43338 18.7034 6.19111 2.90187 24.779 -4.33864
lowerback 5.14743 -1.2581 0.383386
upperback -7.60933 -1.60718 0.183314
thorax -11.029 -0.783644 0.213757
lowerneck 2.9816 6.33001 16.1901
upperneck -4.95215 8.5563 -21.2607
head -0.207097 4.50839 -9.28581
rclavicle -8.37877e-014 -2.82274e-014
rhumerus -49.6835 -29.5519 -26.3621
rradius 31.4798
rwrist 16.471
rhand -5.64618 13.0568
rfingers 7.12502
rthumb 20.1725 -15.9158
lclavicle -8.37877e-014 -2.82274e-014
lhumerus -43.6942 10.5193 21.9025
lradius 40.3561
lwrist 12.4869
lhand -30.0202 34.9036
lfingers 7.12502
lthumb -3.33692 64.8573
rfemur -5.06199 0.253271 16.7881
rtibia 24.6459
rfoot 4.79798 2.99177
rtoes 25.9486
lfemur -13.7383 0.674975 -4.49096
ltibia 18.4692
lfoot -4.99871 12.3307
ltoes -22.7887
658
root 8.56447 18.763 6.24908 2.70191 25.2128 -4.44506
lowerback 5.0064 -1.34181 -0.00109897
upperback -7.66473 -1.76064 0.171322
thorax -10.9941 -0.826408 0.435275
lowerneck 2.84336 6.2948 15.8667
upperneck -4.56256 8.52741 -21.1882
head -0.099254 4.48449 -9.19109
rclavicle 8.44835e-015 1.59028e-014
rhumerus -50.5159 -29.581 -25.6715
rradius 30.8513
rwrist 16.9599
rhand -5.15357 12.7785
rfingers 7.12502
rthumb 20.6459 -16.1434
lclavicle 8.44835e-015 1.59028e-014
lhumerus -43.0959 9.95857 21.2712
lradius 40.4286
lwrist 12.906
lhand -30.0535 34.584
lfingers 7.12502
lthumb -3.36913 64.5371
rfemur -4.91943 0.0577397 16.6204
rtibia 24.9788
rfoot 6.72198 2.30336
rtoes 26.8176
lfemur -13.4555 0.449829 -4.60929
ltibia 17.5851
lfoot -4.23194 12.3705
ltoes -26.7517
659
root 8.69635 18.8186 6.30558 2.40134 25.7783 -4.80066
lowerback 4.77393 -1.52886 -0.189974
upperback -7.6058 -2.01859 0.311141
thorax -10.773 -0.930396 0.71909
lowerneck 2.63128 6.37346 15.4014
upperneck -4.4161 8.61028 -21.1616
head -0.0289469 4.51892 -9.08421
rclavicle -1.48095e-014 -1.35174e-014
rhumerus -50.8744 -29.5755 -25.206
rradius 30.3108
rwrist 17.2946
rhand -4.88903 12.5468
rfingers 7.12502
rthumb 20.9 -16.3473
lclavicle -1.48095e-014 -1.35174e-014
lhumerus -42.586 9.95518 20.538
lradius 40.5357
lwrist 12.7524
lhand -29.743 34.7601
lfingers 7.12502
lthumb -3.06931 64.7177
rfemur -4.95065 -0.352282 16.683
rtibia 25.5395
rfoot 8.54437 1.52796
rtoes 29.264
lfemur -13.1988 0.239952 -4.51593
ltibia 16.7539
lfoot -2.86728 12.1559
ltoes -29.3386
660
root 8.8311 18.8735 6.36008 2.11047 26.3093 -5.01426
lowerback 4.51932 -1.58926 -0.506191
upperback -7.50528 -2.12867 0.320854
thorax -10.4923 -0.960727 0.910483
lowerneck 2.44879 6.26084 15.2032
upperneck -4.15738 8.45986 -21.1955
head 0.0388229 4.4339 -9.05501
rclavicle -3.73715e-014 -3.02153e-014
rhumerus -51.4629 -29.7229 -24.5269
rradius 29.7487
rwrist 17.2274
rhand -5.33363 12.2638
rfingers 7.12502
rthumb 20.4728 -16.6768
lclavicle -3.73715e-014 -3.02153e-014
lhumerus -41.6193 9.74883 20.0979
lradius 40.6808
lwrist 12.4776
lhand -29.7257 35.2367
lfingers 7.12502
lthumb -3.05254 65.1946
rfemur -5.08916 -0.639061 16.5674
rtibia 26.3589
rfoot 10.2991 0.56899
rtoes 32.7926
lfemur -12.8406 -0.22558 -4.56226
ltibia 15.9746
lfoot -1.89025 12.2394
ltoes -27.4764
661
root 8.96743 18.9124 6.41147 2.03426 26.8373 -4.96862
lowerback 4.1557 -1.54901 -1.06141
upperback -7.43407 -2.13074 0.218471
thorax -10.1772 -0.926589 1.09772
lowerneck 2.41404 6.03118 15.1182
upperneck -4.00268 8.15604 -21.2505
head 0.0292911 4.28092 -9.06881
rclavicle 6.4605e-015 7.95139e-015
rhumerus -52.5566 -30.6143 -22.8507
rradius 29.0105
rwrist 17.995
rhand -5.72406 12.3342
rfingers 7.12502
rthumb 20.0976 -16.6463
lclavicle 6.4605e-015 7.95139e-015
lhumerus -40.2417 9.15072 20.1029
lradius 40.8051
lwrist 12.41
lhand -30.3055 35.9838
lfingers 7.12502
lthumb -3.61252 65.933
rfemur -5.40934 -0.966614 16.1644
rtibia 27.3261
rfoot 11.9639 -0.436647
rtoes 36.5132
lfemur -12.596 -0.883383 -4.85337
ltibia 15.3185
lfoot -1.2137 12.5907
ltoes -23.4326
662
root 9.10341 18.9388 6.4643 2.0072 27.3678 -4.89297
lowerback 3.77756 -1.56847 -1.63964
upperback -7.40222 -2.20723 0.140342
thorax -9.89539 -0.926643 1.33332
lowerneck 2.5133 5.87911 14.9795
upperneck -3.88389 7.96856 -21.285
head 0.0051562 4.19346 -9.06649
rclavicle 5.397e-014 2.38542e-015
rhumerus -53.8871 -32.137 -20.1893
rradius 28.0318
rwrist 20.1241
rhand -5.34042 13.0493
rfingers 7.12502
rthumb 20.4663 -15.892
lclavicle 5.397e-014 2.38542e-015
lhumerus -39.0261 8.72477 19.9409
lradius 40.8266
lwrist 12.5077
lhand -30.72 35.7253
lfingers 7.12502
lthumb -4.01279 65.6672
rfemur -5.78936 -1.42898 15.7111
rtibia 28.3833
rfoot 13.4111 -0.750476
rtoes 38.5021
lfemur -12.448 -1.35271 -5.2295
ltibia 14.8453
lfoot -0.679186 13.1334
ltoes -20.2697
663
root 9.24079 18.9599 6.51746 1.88541 27.9657 -4.98602
lowerback 3.55027 -1.68381 -1.95388
upperback -7.52039 -2.39027 0.0605365
thorax -9.87674 -0.994065 1.43987
lowerneck 2.57658 5.79818 14.7796
upperneck -3.30982 7.93524 -21.0564
head 0.127733 4.16696 -8.94706
rclavicle -4.35338e-014 -2.14687e-014
rhumerus -55.0225 -32.611 -18.2356
rradius 27.4063
rwrist 21.3505
rhand -5.03138 13.4031
rfingers 7.12502
rthumb 20.7633 -15.506
lclavicle -4.35338e-014 -2.14687e-014
lhumerus -38.0906 8.13061 19.556
lradius 40.7179
lwrist 12.9372
lhand -30.8554 34.7009
lfingers 7.12502
lthumb -4.14349 64.6404
rfemur -6.17849 -1.73157 15.4433
rtibia 29.5636
rfoot 14.4501 -0.640021
rtoes 38.4945
lfemur -12.3914 -1.61665 -5.50981
ltibia 14.5468
lfoot -0.427529 13.7844
ltoes -16.1414
664
root 9.38299 18.9651 6.56366 1.50488 28.6584 -5.52435
lowerback 3.39903 -1.82951 -1.74698
upperback -7.59372 -2.56472 0.0569665
thorax -9.8699 -1.094 1.33681
lowerneck 2.58056 5.74161 14.5303
upperneck -2.83323 7.91268 -20.7958
head 0.232369 4.14463 -8.80817
rclavicle 1.35174e-014 -7.95139e-015
rhumerus -55.8231 -32.6682 -16.8959
rradius 27.0871
rwrist 21.708
rhand -5.38291 12.8729
rfingers 7.12502
rthumb 20.4255 -16.0728
lclavicle 1.35174e-014 -7.95139e-015
lhumerus -37.1097 7.7448 19.2035
lradius 40.3729
lwrist 13.2061
lhand -31.1834 34.0246
lfingers 7.12502
lthumb -4.46027 63.9577
rfemur -6.51712 -2.02013 15.5951
rtibia 30.8571
rfoot 14.9676 -0.79767
rtoes 39.2174
lfemur -12.3607 -1.73033 -5.40134
ltibia 14.3857
lfoot 0.0899838 14.3128
ltoes -12.3333
665
root 9.52906 18.955 6.60631 1.16331 29.2742 -5.92337
lowerback 3.17235 -1.90683 -1.60989
upperback -7.49417 -2.65338 0.0237334
thorax -9.62787 -1.15355 1.22382
lowerneck 2.35576 5.6604 14.1876
upperneck -2.58646 7.79684 -20.6342
head 0.296707 4.07145 -8.68613
rclavicle 2.42517e-014 7.15625e-015
rhumerus -56.6556 -33.4488 -15.0789
rradius 26.7029
rwrist 22.5326
rhand -6.21134 12.2491
rfingers 7.12502
rthumb 19.6292 -16.7799
lclavicle 2.42517e-014 7.15625e-015
lhumerus -36.0278 7.73232 19.0883
lradius 40.0563
lwrist 12.9951
lhand -31.7164 33.5557
lfingers 7.12502
lthumb -4.97493 63.4773
rfemur -6.87041 -2.31935 15.5512
rtibia 32.2529
rfoot 15.3808 -0.804047
rtoes 40.4678
lfemur -12.3425 -1.53607 -5.53111
ltibia 14.4334
lfoot 1.13507 14.9375
ltoes -11.4293
666
root 9.67341 18.9331 6.65077 0.872706 29.828 -6.12081
lowerback 3.00685 -1.95839 -1.66727
upperback -7.38823 -2.72921 -0.0673631
thorax -9.41144 -1.19424 1.15835
lowerneck 2.08296 5.55434 13.8337
upperneck -2.26292 7.65294 -20.4203
head 0.383708 3.9794 -8.54345
rclavicle 5.96354e-015 8.74653e-015
rhumerus -57.2759 -33.9084 -13.5556
rradius 26.3228
rwrist 22.8643
rhand -7.03986 12.2815
rfingers 7.12502
rthumb 18.8325 -16.8268
lclavicle 5.96354e-015 8.74653e-015
lhumerus -35.1582 7.67484 19.1148
lradius 39.9947
lwrist 12.6512
lhand -32.1018 33.2722
lfingers 7.12502
lthumb -5.34698 63.1847
rfemur -7.25924 -2.56811 15.3044
rtibia 33.7637
rfoot 15.8148 -0.205117
rtoes 40.1921
lfemur -12.3737 -1.15042 -5.90867
ltibia 14.6892
lfoot 1.85464 15.828
ltoes -9.17442
667
root 9.8168 18.9065 6.69145 0.425013 30.3988 -6.54317
lowerback 2.89482 -2.13708 -1.48351
upperback -7.25418 -2.95752 -0.140801
thorax -9.20295 -1.32652 0.994737
lowerneck 2.1095 5.60546 13.6986
upperneck -2.24669 7.72192 -20.2505
head 0.382549 4.01305 -8.46115
rclavicle 9.89948e-014 3.57812e-014
rhumerus -57.1671 -33.8181 -13.1443
rradius 26.1462
rwrist 22.4201
rhand -7.42998 11.9688
rfingers 7.12502
rthumb 18.4572 -17.1755
lclavicle 9.89948e-014 3.57812e-014
lhumerus -34.6987 7.94824 18.7984
lradius 39.9316
lwrist 12.1845
lhand -32.0941 33.0487
lfingers 7.12502
lthumb -5.33957 62.9615
rfemur -7.6627 -2.84442 15.2659
rtibia 35.3948
rfoot 15.8567 0.142916
rtoes 40.2276
lfemur -12.4542 -0.649368 -6.08887
ltibia 15.0986
lfoot 2.63237 16.4139
ltoes -8.39782
668
root 9.96612 18.8711 6.72813 0.0609362 30.9121 -6.89725
lowerback 2.57199 -2.43607 -1.25623
upperback -6.96322 -3.34046 -0.220616
thorax -8.70028 -1.54286 0.800526
lowerneck 1.92645 5.85004 13.6512
upperneck -2.40373 8.01523 -20.1545
head 0.415549 4.15111 -8.40383
rclavicle -4.96962e-015 7.95139e-016
rhumerus -56.5433 -34.1158 -13.2215
rradius 26.1806
rwrist 22.1355
rhand -7.96261 10.8747
rfingers 7.12502
rthumb 17.9448 -18.3175
lclavicle -4.96962e-015 7.95139e-016
lhumerus -34.592 8.57542 18.3548
lradius 39.8207
lwrist 11.6887
lhand -32.2952 33.1552
lfingers 7.12502
lthumb -5.53379 63.0629
rfemur -8.12483 -3.09325 15.1012
rtibia 37.1003
rfoot 15.5634 -0.278827
rtoes 42.4981
lfemur -12.6514 0.0101515 -6.36994
ltibia 15.7953
lfoot 3.53205 16.2629
ltoes -9.54295
669
root 10.1152 18.812 6.76449 -0.413673 31.3014 -7.36009
lowerback 2.34213 -2.62632 -0.97563
upperback -6.71099 -3.57109 -0.218054
thorax -8.30191 -1.68177 0.650475
lowerneck 1.51578 5.95975 13.5322
upperneck -2.21926 8.14575 -20.1252
head 0.554582 4.19152 -8.34864
rclavicle 2.42517e-014 -1.82882e-014
rhumerus -55.8836 -34.2664 -13.1286
rradius 26.2044
rwrist 21.7465
rhand -8.65224 10.1866
rfingers 7.12502
rthumb 17.2812 -19.0651
lclavicle 2.42517e-014 -1.82882e-014
lhumerus -34.5984 8.90029 18.4133
lradius 39.8886
lwrist 11.3561
lhand -33.056 34.0638
lfingers 7.12502
lthumb -6.2683 63.9511
rfemur -8.54824 -3.27875 15.0503
rtibia 38.8541
rfoot 15.0603 -0.116034
rtoes 42.8419
lfemur -12.807 0.945053 -6.54776
ltibia 16.7429
lfoot 2.47841 15.7138
ltoes -6.27979
670
root 10.2581 18.7403 6.79603 -1.05066 31.6253 -8.09728
lowerback 2.44952 -2.70686 -0.54217
upperback -6.70637 -3.64458 -0.115595
thorax -8.3794 -1.74145 0.529952
lowerneck 1.48906 5.92784 13.4995
upperneck -1.95562 8.13673 -20.2335
head 0.635448 4.18131 -8.37391
rclavicle -4.59193e-014 -2.06736e-014
rhumerus -55.3214 -33.8026 -12.8482
rradius 26.178
rwrist 21.1393
rhand -9.13352 10.2324
rfingers 7.12502
rthumb 16.8179 -19.0592
lclavicle -4.59193e-014 -2.06736e-014
lhumerus -34.8133 8.86062 18.7269
lradius 40.1677
lwrist 11.3581
lhand -33.4662 34.3748
lfingers 7.12502
lthumb -6.66432 64.2499
rfemur -9.03155 -3.3237 15.3092
rtibia 40.659
rfoot 14.4694 0.719402
rtoes 40.5343
lfemur -12.9829 1.91309 -6.46465
ltibia 17.8743
lfoot -0.0932174 14.7817
ltoes -2.36359
